<?xml version="1.0" encoding="UTF-8"?>
<svg id="Capa_2" data-name="Capa 2" xmlns="http://www.w3.org/2000/svg" viewBox="0 0 307.2 512">
  <defs>
    <style>
      .cls-1 {
        fill: #fff;
      }
    </style>
  </defs>
  <g id="Layer_1" data-name="Layer 1">
    <path class="cls-1" d="M298.67,0H8.53C3.82,0,0,3.82,0,8.53v494.93c0,4.71,3.82,8.53,8.53,8.53h290.13c4.71,0,8.53-3.82,8.53-8.53V8.53c0-4.71-3.82-8.53-8.53-8.53ZM290.13,494.93H17.07V17.07h273.07v477.87h0Z"/>
    <path class="cls-1" d="M257.07,153.6H52.27c-4.71,0-9.6,3.82-9.6,8.53v273.07c0,4.71,4.89,8.53,9.6,8.53h204.8c4.71,0,7.47-3.82,7.47-8.53V162.13c0-4.71-2.76-8.53-7.47-8.53ZM110.93,426.67h-51.2v-51.2h51.2v51.2ZM110.93,358.4h-51.2v-51.2h51.2v51.2ZM110.93,290.13h-51.2v-51.2h51.2v51.2ZM110.93,221.87h-51.2v-51.2h51.2v51.2ZM179.2,426.67h-51.2v-51.2h51.2v51.2ZM179.2,358.4h-51.2v-51.2h51.2v51.2ZM179.2,290.13h-51.2v-51.2h51.2v51.2ZM179.2,221.87h-51.2v-51.2h51.2v51.2ZM247.47,426.67h-51.2v-51.2h51.2v51.2ZM247.47,358.4h-51.2v-51.2h51.2v51.2ZM247.47,290.13h-51.2v-51.2h51.2v51.2ZM247.47,221.87h-51.2v-51.2h51.2v51.2Z"/>
    <path class="cls-1" d="M261.68,64.33c-4.52-4.67-10.59-7-18.22-7s-13.76,2.33-18.27,7-6.77,10.97-6.77,18.9,2.24,14.12,6.73,18.83c4.49,4.71,10.48,7.07,17.97,7.07s14.03-2.32,18.55-6.97c4.52-4.64,6.78-10.99,6.78-19.03,0-7.87-2.26-14.13-6.78-18.8ZM253.72,97.15c-2.57,3.46-6.05,5.18-10.45,5.18s-7.55-1.75-10.1-5.25c-2.56-3.5-3.83-8.13-3.83-13.88s1.28-10.43,3.85-13.9c2.57-3.47,5.99-5.2,10.28-5.2s7.65,1.73,10.23,5.2c2.58,3.47,3.87,8.07,3.87,13.8,0,5.91-1.28,10.59-3.85,14.05Z"/>
    <path class="cls-1" d="M72.63,82.25c7.89-2.47,11.83-6.72,11.83-12.66,0-3.58-1.29-6.81-3.88-8.68-2.59-1.87-6.36-3.31-11.32-3.31h-15.93v51.2h17.47c5.04,0,8.92-1.5,11.62-3.6s4.05-5.34,4.05-9.28c0-6.8-4.61-11.44-13.83-13.68ZM61.87,66.13h2.37c3.8,0,6.38,0,7.75.82,1.37.81,2.05,2.15,2.05,4.42,0,2.44-.85,4.19-2.55,5.62-1.7,1.42-3.99,1.95-6.88,1.95h-2.73v-12.8h0ZM73.28,99.15c-1.63.92-4.6,1.11-8.92,1.11h-2.5v-14.93h2.3c3.33,0,6.09,1.02,8.28,2.68,2.19,1.67,3.28,3.85,3.28,6.36,0,2.45-.82,3.86-2.45,4.78Z"/>
    <path class="cls-1" d="M194.37,64.1c3.95,0,10.42,1.06,14.69,3.17v-8.03c-4.27-1.27-10.22-1.9-15.62-1.9-8.45,0-14.73,2.23-19.29,6.7-4.57,4.47-6.74,10.84-6.74,19.13s2.11,14.77,6.67,19.25c4.57,4.48,10.93,6.72,19.44,6.72,4.49,0,11.27-.8,15.53-2.4v-21.4h-8.53v16.4c-2.13.33-3.36.5-4.53.5-5.36,0-9.76-1.68-12.8-5.05-3.05-3.37-4.67-8.01-4.67-13.92s1.37-10.83,4.22-14.17c2.84-3.33,6.4-5,11.62-5Z"/>
    <rect class="cls-1" x="96" y="57.6" width="10.67" height="51.2"/>
    <polygon class="cls-1" points="149.33 57.6 149.33 92.27 127.17 57.6 117.33 57.6 117.33 108.8 125.87 108.8 125.87 74.2 149.07 108.8 157.87 108.8 157.87 57.6 149.33 57.6"/>
  </g>
</svg>