<?xml version="1.0" encoding="UTF-8"?>
<svg id="Capa_2" data-name="Capa 2" xmlns="http://www.w3.org/2000/svg" viewBox="0 0 31.83 32.14">
  <defs>
    <style>
      .cls-1, .cls-2, .cls-3 {
        fill: #fff;
      }

      .cls-4 {
        fill: none;
        stroke: #fff;
        stroke-linejoin: round;
      }

      .cls-2 {
        font-size: 4.01px;
      }

      .cls-2, .cls-3 {
        font-family: Bahnschrift, Bahnschrift;
        font-variation-settings: 'wght' 400, 'wdth' 100;
      }

      .cls-2, .cls-3, .cls-5 {
        isolation: isolate;
      }

      .cls-3 {
        font-size: 4.24px;
      }
    </style>
  </defs>
  <g id="Capa_2-2" data-name="Capa 2">
    <g id="Capa_1-2" data-name="Capa 1-2">
      <path class="cls-4" d="M11.59,30.81l-5.62.81c-.82.12-1.58-.45-1.7-1.27L.52,4.35c-.12-.82.45-1.58,1.27-1.7l9.78-1.41"/>
      <path class="cls-1" d="M11.4,20.79c-1.86-1.84-4.8-4.05-4.8-4.05,2.28-1.99,4.25-6.94,4.25-6.94,0,0,.21.26.56.67"/>
      <rect class="cls-4" x="11.33" y=".5" width="20" height="31" rx="1.5" ry="1.5"/>
      <path class="cls-1" d="M26.83,16s-4.52,4.55-5.5,6.63c-.98-2.08-5.5-6.63-5.5-6.63,2.7-1.74,5.5-6.63,5.5-6.63,0,0,2.8,4.89,5.5,6.63Z"/>
      <g class="cls-5">
        <text class="cls-3" transform="translate(12.85 5.28)"><tspan x="0" y="0">A</tspan></text>
      </g>
      <g class="cls-5">
        <text class="cls-3" transform="translate(26.83 26.71) scale(1 -1)"><tspan x="0" y="0">A</tspan></text>
      </g>
      <g class="cls-5">
        <text class="cls-2" transform="translate(2.37 7.12) rotate(-8.21)"><tspan x="0" y="0">K</tspan></text>
      </g>
    </g>
  </g>
</svg>