<?xml version="1.0" encoding="UTF-8"?>
<svg id="Capa_2" xmlns="http://www.w3.org/2000/svg" version="1.1" viewBox="0 0 32 32">
  <!-- Generator: Adobe Illustrator 29.2.1, SVG Export Plug-In . SVG Version: 2.1.0 Build 116)  -->
  <defs>
    <style>
      .st0 {
        fill: none;
      }

      .st0, .st1 {
        stroke: #000;
        stroke-miterlimit: 10;
      }
    </style>
  </defs>
  <circle class="st1" cx="16" cy="16" r="1"/>
  <rect x="11" y="15.5" width="10" height="1"/>
  <rect x="15.5" y="11" width="1" height="10"/>
  <circle class="st1" cx="9.6" cy="16" r="1"/>
  <circle class="st1" cx="22.4" cy="16" r="1"/>
  <circle class="st1" cx="16" cy="9.6" r="1"/>
  <circle class="st1" cx="16" cy="22.4" r="1"/>
  <circle class="st0" cx="16" cy="16" r="15.5"/>
  <circle class="st0" cx="16" cy="16" r="11.3"/>
  <line class="st0" x1="16" y1=".5" x2="16" y2="4.7"/>
  <line class="st0" x1="31.5" y1="16" x2="27.3" y2="16"/>
  <line class="st0" x1="29.4" y1="8.3" x2="25.8" y2="10.3"/>
  <line class="st0" x1="23.8" y1="29.4" x2="21.7" y2="25.8"/>
  <line class="st0" x1="23.7" y1="2.6" x2="21.6" y2="6.2"/>
  <line class="st0" x1="29.4" y1="23.8" x2="25.8" y2="21.6"/>
  <line class="st0" x1="6.2" y1="21.6" x2="2.6" y2="23.7"/>
  <line class="st0" x1="6.2" y1="10.4" x2="2.6" y2="8.3"/>
  <line class="st0" x1="4.7" y1="16" x2=".5" y2="16"/>
  <line class="st0" x1="16" y1="27.3" x2="16" y2="31.5"/>
  <line class="st0" x1="10.3" y1="25.8" x2="8.3" y2="29.4"/>
  <line class="st0" x1="10.4" y1="6.2" x2="8.3" y2="2.6"/>
  <path d="M9.5,27h0c.3-.4.4-.8.3-1.3,0-.3-.2-.5-.4-.7-.1-.1-.2-.2-.4-.3-.2,0-.3-.2-.5-.3-.7-.6-1.3-1.3-1.8-2-.2-.3-.7-.4-1.1-.4s-.8.2-1.1.4c0,0,0,.2-.2.3-.2,0-.4,0-.6.2-.3.2-.6.5-.7.9-.2.7.2,1.4.8,1.7h.2c.2.2.4.4.5.6.2.3.4.6.6.9.2.4.4.7.7,1,.4.5,1,.8,1.7.8s1.2-.3,1.5-.8c.1-.2.2-.5.2-.7v-.2s0-.2.2-.3v.2Z"/>
  <path d="M5.4,9.7c-.3-.2-.6-.4-1-.4h0c-.6-.6-1.6-.6-2.2,0h0c-.1,0-.2.1-.3.2-.1.1-.2.3-.3.5,0,.2-.1.4-.1.6v.3c0,.2-.2.4-.3.6,0,.2-.1.5-.1.7,0,.4-.2.9-.3,1.3-.1.4-.3.7-.2,1.1,0,.7.6,1.2,1.2,1.4.3,0,.7.1,1,.2.4,0,.9,0,1.3-.2.7-.4.9-1.1.8-1.9,0-.2,0-.3-.1-.5v-.3c0-.2.1-.4.2-.7,0-.2.1-.4.2-.5h0c.3-.3.4-.8.4-1.2s-.2-.8-.4-1.1h.1Z"/>
  <path d="M16,1.4c-.2-.6-.8-.9-1.4-.9s-1,0-1.4.1c-.3,0-.7.2-1,.4-.6.2-1.1.4-1.7.5h-.7c-.8.3-1.3,1-1,1.8,0,.3.3.6.5.8-.1.7.3,1.5,1.1,1.7.5,0,1,0,1.4-.3.7-.2,1.4-.4,2.1-.6.6,0,1.2,0,1.7-.6.4-.4.5-.9.5-1.4v-.2c.2-.4.2-.8,0-1.2h-.1Z"/>
  <path d="M29.1,6.9c-.2-.3-.4-.7-.7-.9-.4-.4-1-.8-1.4-1.2-.3-.3-.6-.5-1.1-.7-.2,0-.3-.2-.5-.3-.2-.3-.6-.6-1-.6s-.9,0-1.3.2c-.3.2-.6.5-.7.9v.4h0c-.4.7-.2,1.6.5,2.1.4.2.7.4,1.2.7h0v.6c.1.4.4.8.9,1h0c.2.3.4.4.6.5.4.2.9.2,1.3,0,.3,0,.5-.2.7-.3.1,0,.3-.1.4-.2.4-.2.7-.6.9-1,.1-.5,0-.9-.2-1.4l.4.2Z"/>
  <path d="M31.2,17.2c0-.3,0-.6-.2-.9s-.5-.6-.9-.7c-.4,0-.9,0-1.3.2h-.3c-.4,0-.8.1-1.1.4-.3.3-.4.6-.4,1.1s0,.9-.1,1.4c0,.3-.1.7-.2,1h0c0,.2-.2.4-.3.5-.2.4-.2.8,0,1.2.1.4.4.8.8,1,.1,0,.2.1.4.2h.1l.2.2c.3.4.8.5,1.3.4.5,0,.8-.3,1.1-.7.4-.7.4-1.4.5-2.2v-.4c.2-.4.4-.8.5-1.2v-1.7.2Z"/>
  <path d="M23.4,28.5c0-.4-.2-.6-.4-.9-.2-.2-.4-.4-.7-.6,0,0,0-.2-.1-.2-.4-.6-1.4-1-2.1-.5-.2.1-.3.2-.5.3-.1,0-.2,0-.3.1-.4,0-.7.3-.8.6-.1,0-.2-.1-.3-.2-.7-.2-1.7.2-1.8,1,0,.3,0,.5-.2.8-.3.4-.4.9-.3,1.3,0,.2.2.5.4.7.3.3.7.4,1.1.4.7,0,1.4-.2,2.1-.4.7-.2,1.3-.5,2-.8-.1,0-.2.1-.4.2.2,0,.4-.1.5-.2h.4c.6,0,1.1-.4,1.4-.9.1-.3.1-.5.1-.8h-.1Z"/>
</svg>